<?xml version="1.0" standalone="no"?><!DOCTYPE svg PUBLIC "-//W3C//DTD SVG 1.1//EN" "http://www.w3.org/Graphics/SVG/1.1/DTD/svg11.dtd"><svg t="1584805245075" class="icon" viewBox="0 0 1024 1024" version="1.1" xmlns="http://www.w3.org/2000/svg" p-id="23656" xmlns:xlink="http://www.w3.org/1999/xlink" width="200" height="200"><defs><style type="text/css"></style></defs><path d="M758.982626 520.67252c-5.938246 0-11.876492-2.272763-16.422018-6.817266L277.710464 49.005111c-9.090029-9.089006-9.090029-23.814382 0-32.904411 9.089006-9.090029 23.814382-9.090029 32.904411 0l464.850144 464.850144c9.090029 9.090029 9.090029 23.815405 0 32.905434C770.920516 518.40078 764.951571 520.67252 758.982626 520.67252z" p-id="23657" fill="#ffffff"></path><path d="M265.106402 1014.594793c-5.953595 0-11.908214-2.302439-16.452717-6.846942-9.090029-9.090029-9.090029-23.814382 0-32.904411l493.907946-493.892597c9.090029-9.090029 23.814382-9.090029 32.904411 0s9.090029 23.815405 0 32.905434L281.558096 1007.747851C277.013593 1012.292354 271.058974 1014.594793 265.106402 1014.594793z" p-id="23658" fill="#ffffff"></path></svg>