<?xml version="1.0" standalone="no"?><!DOCTYPE svg PUBLIC "-//W3C//DTD SVG 1.1//EN" "http://www.w3.org/Graphics/SVG/1.1/DTD/svg11.dtd"><svg t="1584804717334" class="icon" viewBox="0 0 1024 1024" version="1.1" xmlns="http://www.w3.org/2000/svg" p-id="11444" xmlns:xlink="http://www.w3.org/1999/xlink" width="200" height="200"><defs><style type="text/css"></style></defs><path d="M834 770H386.6c-27 0-53.3-9.7-73.8-27.3-20.6-17.6-34.2-42-38.4-68.7l-73.2-464.7c-5.1-32.1-32.3-55.4-64.8-55.4H127c-13.3 0-24-10.7-24-24s10.7-24 24-24h9.4c27 0 53.3 9.7 73.8 27.3 20.6 17.6 34.2 42 38.4 68.7l73.2 464.7c5.1 32.1 32.3 55.4 64.8 55.4H834c13.3 0 24 10.7 24 24s-10.7 24-24 24z" p-id="11445"></path><path d="M399 660c-12.4 0-22.9-9.5-23.9-22.1-1.1-13.2 8.8-24.8 22-25.8L787 580.8c29.7-2.5 54.1-24.7 59.2-54.2l35.1-202.8c3.3-19.1-2-38.6-14.5-53.4-12.5-14.9-30.8-23.4-50.2-23.4h-582c-13.3 0-24-10.7-24-24s10.7-24 24-24h582c33.6 0 65.3 14.7 86.9 40.4 21.6 25.7 30.8 59.4 25 92.5l-35.1 202.8c-8.8 51-51 89.6-102.6 93.9l-389.9 31.3c-0.6 0.1-1.3 0.1-1.9 0.1z" p-id="11446"></path><path d="M373.1 863.6m-60 0a60 60 0 1 0 120 0 60 60 0 1 0-120 0Z" p-id="11447"></path><path d="M776.1 863.6m-60 0a60 60 0 1 0 120 0 60 60 0 1 0-120 0Z" p-id="11448"></path></svg>