<?xml version="1.0" standalone="no"?><!DOCTYPE svg PUBLIC "-//W3C//DTD SVG 1.1//EN" "http://www.w3.org/Graphics/SVG/1.1/DTD/svg11.dtd"><svg t="1584805754503" class="icon" viewBox="0 0 1024 1024" version="1.1" xmlns="http://www.w3.org/2000/svg" p-id="26493" xmlns:xlink="http://www.w3.org/1999/xlink" width="200" height="200"><defs><style type="text/css"></style></defs><path d="M413.1 265.8c0-26.4 31.1-26.4 31.1-26.4h135s31.9 0 31.9 26.4-30.6 26.4-30.6 26.4H444.3s-31.2 0-31.2-26.4zM182.3 460.1l0.3-105.5s7.8-62 63.8-62h30.7s26.1-2.1 26.1-23.1c0-30.2-25.5-30.2-25.5-30.2h-31.1s-103.1-2.7-118.1 113.3v107.5s0.7 24 26.5 24c27.1 0 27.3-24 27.3-24z m687.8 24c25.8 0 26.5-24 26.5-24V352.6c-15-116-118.1-113.3-118.1-113.3h-31.1s-25.5 0-25.5 30.2c0 21 26.1 23.1 26.1 23.1h30.7c56 0 63.8 62 63.8 62l0.3 105.5s0.3 24 27.3 24z m24.7 50.5v311.3c0 101.2-107.4 100.1-107.4 100.1H228.8c-102.2 0-99.3-98.2-99.3-98.2V534.5c0-19.2 15.1-19.3 23.6-18.3 235.8 28.1 360.5 220.2 360.5 220.2 120.8-186.3 333.9-220.9 357.9-220.9 24.4 0 23.3 19.1 23.3 19.1zM478.3 784.8C373.8 605.9 180.8 573.6 180.8 573.6V839c0 53.7 61.8 56.3 61.8 56.3h187.9c12.2-42.3 47.8-110.5 47.8-110.5z m60.4 110.5l-25.1-66.7-28.2 66.7h53.3z m304.7-321.7s-193 32.3-297.5 211.2c0 0 35.6 68.2 47.9 110.5h187.9s61.8-2.5 61.8-56.3V573.6zM377.9 295.5s-23-166.6 132.7-166.6 136 166.6 136 166.6 2.6 24.8 26 24.8c23.3 0 25.1-22.9 25.1-22.9S722.2 77.8 510.6 77.8C301 77.8 326.7 296 326.7 296s-0.4 24.4 26.6 24.4c25.3-0.1 24.6-24.9 24.6-24.9z" fill="#1A1A1A" p-id="26494"></path></svg>