<?xml version="1.0" standalone="no"?><!DOCTYPE svg PUBLIC "-//W3C//DTD SVG 1.1//EN" "http://www.w3.org/Graphics/SVG/1.1/DTD/svg11.dtd"><svg t="1581394475293" class="icon" viewBox="0 0 1024 1024" version="1.1" xmlns="http://www.w3.org/2000/svg" p-id="1738" xmlns:xlink="http://www.w3.org/1999/xlink" width="200" height="200"><defs><style type="text/css"></style></defs><path d="M793.428208 736.082389a12.799949 12.799949 0 0 1-12.799949-12.799949v-392.531763a12.799949 12.799949 0 0 1 25.599897 0v392.531763a12.799949 12.799949 0 0 1-12.799948 12.799949z" fill="#1A5B3E" p-id="1739"></path><path d="M791.892214 383.145134a133.631465 133.631465 0 0 0-10.239959-108.543566 151.551394 151.551394 0 0 0-77.823689-73.557039 210.601824 210.601824 0 0 1-10.581291 45.05582 103.764918 103.764918 0 0 0 6.485307 91.306301c29.525215 48.469139 92.159631 45.738484 92.159632 45.738484z" fill="#329664" p-id="1740"></path><path d="M652.970103 706.215842a12.799949 12.799949 0 0 1-12.799949-12.799949v-204.799181a12.799949 12.799949 0 0 1 25.599898 0v204.799181a12.799949 12.799949 0 0 1-12.799949 12.799949z" fill="#1A5B3E" p-id="1741"></path><path d="M789.332224 382.291804s-24.746568-70.655717 31.914539-117.759529 69.973053-58.709098 80.213012-80.554344c0 0 47.445144 78.847685 6.314642 147.796742a111.615554 111.615554 0 0 1-118.442193 50.517131z" fill="#42B275" p-id="1742"></path><path d="M381.09919 684.882594a12.799949 12.799949 0 0 1-12.799949-12.799949v-141.652767a12.799949 12.799949 0 0 1 25.599898 0v141.652767a12.799949 12.799949 0 0 1-12.799949 12.799949z" fill="#1A5B3E" p-id="1743"></path><path d="M382.976516 540.669837a88.40498 88.40498 0 0 0-6.826639-71.850379 100.351599 100.351599 0 0 0-51.199795-48.639805 139.434109 139.434109 0 0 1-6.997306 29.866547 68.266394 68.266394 0 0 0 3.754652 60.415758 73.898371 73.898371 0 0 0 61.269088 30.207879z" fill="#329664" p-id="1744"></path><path d="M374.443217 541.011169a80.213012 80.213012 0 0 1 22.869242-85.332992c40.618504-34.133197 51.199795-42.154498 57.685102-58.026434 0 0 34.133197 56.661107 4.437316 106.324908a80.213012 80.213012 0 0 1-84.99166 37.034518z" fill="#42B275" p-id="1745"></path><path d="M494.933402 736.082389a12.799949 12.799949 0 0 1-12.799949-12.799949v-392.531763a12.799949 12.799949 0 0 1 25.599897 0v392.531763a12.799949 12.799949 0 0 1-12.799948 12.799949z" fill="#1A5B3E" p-id="1746"></path><path d="M664.234058 518.824591a100.522265 100.522265 0 0 0-28.671886-76.970358 98.986271 98.986271 0 0 0-79.87168-30.20788s-3.071988 57.002439 31.914539 91.988966c30.378545 30.549211 76.629027 15.189273 76.629027 15.189272z" fill="#329664" p-id="1747"></path><path d="M648.532787 522.237911a97.620943 97.620943 0 0 0 72.362377-46.591814 119.466189 119.466189 0 0 0 19.626589-81.237008 104.10625 104.10625 0 0 0-83.285001 37.375851 78.677019 78.677019 0 0 0-8.703965 90.452971z" fill="#42B275" p-id="1748"></path><path d="M224.769149 706.215842a12.799949 12.799949 0 0 1-12.799949-12.799949v-307.198771a12.799949 12.799949 0 0 1 25.599898 0v307.198771a12.799949 12.799949 0 0 1-12.799949 12.799949z" fill="#1A5B3E" p-id="1749"></path><path d="M233.985112 428.712952s15.018607-45.397152-23.551906-100.522265a129.876814 129.876814 0 0 0-66.047736-45.05582c-19.797254-7.679969-34.133197-14.335943-34.133196-14.335942S96.598995 343.038628 136.534835 395.262419c34.133197 45.226486 97.450277 33.450533 97.450277 33.450533z" fill="#329664" p-id="1750"></path><path d="M224.598483 430.760944a119.466189 119.466189 0 0 0 86.868986-59.562429 146.090082 146.090082 0 0 0 21.162582-100.010266s-7.167971 3.242654-42.49583 15.530604a154.964713 154.964713 0 0 0-62.975748 39.423842 82.261004 82.261004 0 0 0-2.55999 104.618249z" fill="#42B275" p-id="1751"></path><path d="M760.489673 1023.995904H263.510327a68.266394 68.266394 0 0 1-68.266393-58.197101L153.601434 682.663936h716.797132l-42.49583 283.134867A68.266394 68.266394 0 0 1 760.489673 1023.995904z" fill="#685245" p-id="1752"></path><path d="M856.915954 772.263578l6.826639-44.714488H160.257407l6.826639 44.714488h689.831908z" fill="#513D33" p-id="1753"></path><path d="M119.468237 648.530739m42.666496 0l699.730534 0q42.666496 0 42.666496 42.666496l0 0q0 42.666496-42.666496 42.666496l-699.730534 0q-42.666496 0-42.666496-42.666496l0 0q0-42.666496 42.666496-42.666496Z" fill="#7C6559" p-id="1754"></path><path d="M494.933402 332.969335a178.345953 178.345953 0 0 1-45.567818-102.399591A157.354037 157.354037 0 0 1 494.933402 115.711537a166.058002 166.058002 0 0 1 40.959836 101.546261c-1.194662 87.210318-40.959836 115.711537-40.959836 115.711537z" fill="#258450" p-id="1755"></path><path d="M498.005389 334.334663a121.855513 121.855513 0 0 0-19.96792-119.466189C437.930963 164.522009 350.208647 170.665984 350.208647 170.665984a381.779806 381.779806 0 0 1 13.823945 42.325164c5.290646 20.309252 12.629283 57.514437 30.549211 79.871681 35.498525 43.519826 103.423586 41.471834 103.423586 41.471834z" fill="#329664" p-id="1756"></path><path d="M496.469395 333.481333a125.439498 125.439498 0 0 1 23.893238-124.756835 180.564611 180.564611 0 0 1 104.447582-61.439754 134.826127 134.826127 0 0 1-15.70127 122.879509 132.266138 132.266138 0 0 1-112.63955 63.31708z" fill="#42B275" p-id="1757"></path></svg>