<?xml version="1.0" standalone="no"?><!DOCTYPE svg PUBLIC "-//W3C//DTD SVG 1.1//EN" "http://www.w3.org/Graphics/SVG/1.1/DTD/svg11.dtd"><svg t="1581394489928" class="icon" viewBox="0 0 1024 1024" version="1.1" xmlns="http://www.w3.org/2000/svg" p-id="2009" xmlns:xlink="http://www.w3.org/1999/xlink" width="200" height="200"><defs><style type="text/css"></style></defs><path d="M523.946667 148.992A12.8 12.8 0 0 1 512 136.533333V85.333333a12.8 12.8 0 1 1 25.6 0v51.2a12.8 12.8 0 0 1-13.653333 12.458667zM485.546667 165.546667a12.8 12.8 0 0 1-11.093334-6.314667l-25.6-44.373333A12.8 12.8 0 0 1 471.04 102.4l25.6 44.373333a12.8 12.8 0 0 1-11.093333 19.285334zM562.346667 165.546667a12.8 12.8 0 0 1-11.093334-19.114667L576.853333 102.4a12.8 12.8 0 0 1 22.186667 12.8l-25.6 44.373333a12.8 12.8 0 0 1-11.093333 5.973334z" fill="#1A5B3E" p-id="2010"></path><path d="M609.28 809.984h-170.666667l-17.066666-580.266667a102.4 102.4 0 0 1 102.4-102.4 102.4 102.4 0 0 1 102.4 102.4z" fill="#329664" p-id="2011"></path><path d="M469.504 702.634667a8.533333 8.533333 0 0 1-8.704-8.362667v-34.133333a8.533333 8.533333 0 1 1 17.066667 0v34.133333a8.533333 8.533333 0 0 1-8.362667 8.362667z m-1.536-67.242667a8.533333 8.533333 0 0 1-8.704-8.362667v-34.133333a8.533333 8.533333 0 1 1 17.066667 0v34.133333a8.533333 8.533333 0 0 1-8.362667 8.362667z m-1.536-67.242667a8.533333 8.533333 0 0 1-8.704-8.362666v-34.133334a8.533333 8.533333 0 1 1 17.066667 0v34.133334a8.533333 8.533333 0 0 1-8.362667 8.362666z m-1.536-67.242666a8.533333 8.533333 0 0 1-8.704-8.362667v-34.133333a8.533333 8.533333 0 1 1 17.066667 0v34.133333a8.533333 8.533333 0 0 1-8.362667 8.362667z m-1.536-67.242667a8.533333 8.533333 0 0 1-8.704-8.362667v-34.133333a8.533333 8.533333 0 0 1 17.066667 0v34.133333a8.533333 8.533333 0 0 1-8.362667 8.362667z m-1.536-67.242667a8.533333 8.533333 0 0 1-8.704-8.362666v-34.133334a8.533333 8.533333 0 0 1 17.066667 0v34.133334a8.533333 8.533333 0 0 1-8.362667 8.192zM460.8 299.008a8.533333 8.533333 0 0 1-8.704-8.362667v-34.133333a8.533333 8.533333 0 0 1 17.066667 0v34.133333a8.533333 8.533333 0 0 1-8.362667 8.362667z m-1.194667-67.242667a8.533333 8.533333 0 0 1-8.021333-9.045333 109.738667 109.738667 0 0 1 6.997333-34.986667 8.533333 8.533333 0 0 1 15.701334 6.656 92.501333 92.501333 0 0 0-6.997334 29.866667 8.533333 8.533333 0 0 1-8.192 7.509333zM484.352 170.666667a8.533333 8.533333 0 0 1-6.485333-14.165334 111.616 111.616 0 0 1 27.989333-23.04 8.533333 8.533333 0 0 1 8.533333 14.848 94.378667 94.378667 0 0 0-23.722666 19.456 8.533333 8.533333 0 0 1-6.314667 2.901334z" fill="#258450" p-id="2012"></path><path d="M693.418667 254.976a12.8 12.8 0 0 1-12.8-12.8v-51.2a12.8 12.8 0 0 1 25.6 0v51.2a12.8 12.8 0 0 1-12.8 12.8zM655.018667 271.530667a12.8 12.8 0 0 1-11.093334-6.314667l-25.6-44.373333a12.8 12.8 0 1 1 22.186667-12.8l25.6 44.373333a12.8 12.8 0 0 1-11.093333 19.285333zM731.818667 271.530667a12.8 12.8 0 0 1-11.093334-19.114667l25.6-44.373333a12.8 12.8 0 1 1 22.186667 12.8l-25.6 44.373333a12.8 12.8 0 0 1-11.093333 6.314667z" fill="#1A5B3E" p-id="2013"></path><path d="M778.752 683.861333h-170.666667l-13.141333-348.16a98.645333 98.645333 0 0 1 98.474667-102.4 98.645333 98.645333 0 0 1 98.474666 102.4z" fill="#42B275" p-id="2014"></path><path d="M636.928 673.962667a8.533333 8.533333 0 0 1-8.704-8.362667v-34.133333a8.533333 8.533333 0 1 1 17.066667 0v34.133333a8.533333 8.533333 0 0 1-8.362667 8.362667z m-1.365333-67.242667a8.533333 8.533333 0 0 1-8.704-8.362667v-34.133333a8.533333 8.533333 0 1 1 17.066666 0v34.133333a8.533333 8.533333 0 0 1-8.362666 8.362667z m-1.365334-67.242667a8.533333 8.533333 0 0 1-8.704-8.362666v-34.133334a8.533333 8.533333 0 1 1 17.066667 0v34.133334a8.533333 8.533333 0 0 1-8.362667 8.362666z m-1.365333-67.242666a8.533333 8.533333 0 0 1-8.704-8.362667v-34.133333a8.533333 8.533333 0 0 1 17.066667 0v34.133333a8.533333 8.533333 0 0 1-8.362667 8.362667zM631.466667 404.821333a8.533333 8.533333 0 0 1-8.704-8.362666v-34.133334a8.533333 8.533333 0 1 1 17.066666 0v34.133334a8.533333 8.533333 0 0 1-8.362666 8.362666z m-1.024-67.242666a8.533333 8.533333 0 0 1-8.021334-9.045334 109.738667 109.738667 0 0 1 8.362667-35.328 8.533333 8.533333 0 1 1 15.701333 6.656 92.501333 92.501333 0 0 0-6.997333 29.866667 8.533333 8.533333 0 0 1-9.045333 7.850667z m25.6-60.928a8.533333 8.533333 0 0 1-6.656-14.165334A111.616 111.616 0 0 1 677.546667 238.933333a8.533333 8.533333 0 1 1 8.533333 14.848A94.378667 94.378667 0 0 0 662.186667 273.066667a8.533333 8.533333 0 0 1-6.144 3.584z" fill="#329664" p-id="2015"></path><path d="M333.141333 277.845333a12.8 12.8 0 0 1-12.8-12.8v-51.2a12.8 12.8 0 0 1 25.6 0v51.2a12.8 12.8 0 0 1-12.8 12.8zM294.741333 294.229333a12.8 12.8 0 0 1-11.093333-6.314666l-25.6-44.373334a12.8 12.8 0 0 1 22.186667-12.8l25.6 44.373334a12.8 12.8 0 0 1-11.093334 19.285333zM371.541333 294.229333a12.8 12.8 0 0 1-11.093333-19.114666l25.6-44.373334a12.8 12.8 0 0 1 22.186667 12.8l-25.6 44.373334a12.8 12.8 0 0 1-11.093334 6.314666z" fill="#1A5B3E" p-id="2016"></path><path d="M418.474667 706.56h-170.666667l-17.066667-348.16a102.4 102.4 0 0 1 102.4-102.4 102.4 102.4 0 0 1 102.4 102.4z" fill="#42B275" p-id="2017"></path><path d="M282.453333 700.757333a8.533333 8.533333 0 0 1-8.874666-8.192l-1.536-34.133333a8.533333 8.533333 0 0 1 17.066666 0l1.536 34.133333a8.533333 8.533333 0 0 1-8.192 8.192z m-3.242666-67.242666a8.533333 8.533333 0 0 1-8.874667-8.192l-1.536-34.133334a8.533333 8.533333 0 1 1 17.066667 0l1.536 34.133334a8.533333 8.533333 0 0 1-8.192 8.192z m-3.242667-67.242667a8.533333 8.533333 0 0 1-8.874667-8.192l-1.536-34.133333a8.533333 8.533333 0 0 1 17.066667 0l1.536 34.133333a8.533333 8.533333 0 0 1-8.192 8.192zM273.066667 499.029333a8.533333 8.533333 0 0 1-8.874667-8.192l-1.536-34.133333a8.533333 8.533333 0 0 1 17.066667 0l1.536 34.133333a8.533333 8.533333 0 0 1-8.192 8.192z m-3.413334-67.242666a8.533333 8.533333 0 0 1-8.874666-8.192l-1.536-34.133334a8.533333 8.533333 0 0 1 17.066666 0l1.536 34.133334a8.533333 8.533333 0 0 1-8.192 8.192z m-2.730666-67.242667a8.533333 8.533333 0 0 1-8.192-8.874667 109.738667 109.738667 0 0 1 7.338666-35.498666 8.533333 8.533333 0 0 1 15.872 6.144 92.501333 92.501333 0 0 0-6.144 30.037333 8.533333 8.533333 0 0 1-9.045333 8.192zM290.133333 302.933333a8.533333 8.533333 0 0 1-6.997333-13.994666 111.616 111.616 0 0 1 27.477333-23.722667 8.533333 8.533333 0 1 1 8.874667 14.506667 94.378667 94.378667 0 0 0-23.210667 20.138666 8.533333 8.533333 0 0 1-6.144 3.072z" fill="#329664" p-id="2018"></path><path d="M290.133333 972.8h443.733334v35.157333a16.042667 16.042667 0 0 1-16.042667 16.042667H306.176a16.042667 16.042667 0 0 1-16.042667-16.042667V972.8z" fill="#513D33" p-id="2019"></path><path d="M726.698667 989.866667H297.301333a68.266667 68.266667 0 0 1-68.266666-57.685334l-35.84-227.157333a34.133333 34.133333 0 0 1 34.133333-39.424h569.002667a34.133333 34.133333 0 0 1 34.133333 39.424l-35.84 227.157333A68.266667 68.266667 0 0 1 726.698667 989.866667z" fill="#7C6559" p-id="2020"></path></svg>