<?xml version="1.0" standalone="no"?><!DOCTYPE svg PUBLIC "-//W3C//DTD SVG 1.1//EN" "http://www.w3.org/Graphics/SVG/1.1/DTD/svg11.dtd"><svg t="1581396398135" class="icon" viewBox="0 0 1024 1024" version="1.1" xmlns="http://www.w3.org/2000/svg" p-id="3399" xmlns:xlink="http://www.w3.org/1999/xlink" width="200" height="200"><defs><style type="text/css"></style></defs><path d="M367.542914 247.820309a315.690751 315.690751 0 0 0-53.894261-95.84992l-27.799888 20.466175 15.17908-33.086983a62.933488 62.933488 0 0 0-64.980106-17.055146c-31.040366 11.768051-54.405915 44.002276-41.955659 107.106317l57.987496 2.558272-54.064812 13.814668a338.544646 338.544646 0 0 0 17.055146 46.7311l13.303013 29.164299c13.132462 29.334851 29.846505 62.762937 47.754409 96.020472l45.53724-1.364412-38.374079 14.496874c48.948269 88.516207 105.059699 170.551459 124.502565 163.899952 25.75327-10.062536 5.457647-228.538955-40.250144-346.901668zM820.186487 160.668514a62.080731 62.080731 0 0 0-64.980106 11.426948l-11.597499 9.721433a304.775458 304.775458 0 0 0-62.080732 92.950545c-53.212055 113.41672-80.329737 302.72884-54.747018 314.496891s127.572491-126.549183 187.606605-231.949985l-43.149519-21.660035 57.987496-5.969301c53.041504-100.795912 29.505402-151.279144-9.039227-169.016496z" fill="#cdcdcd" p-id="3400"></path><path d="M598.299038 705.068771h-2.899374a12.791359 12.791359 0 0 1-9.550882-15.349631 1923.308805 1923.308805 0 0 1 83.399663-258.044358c54.91757-136.441167 93.4622-192.723149 94.997163-195.110869a12.791359 12.791359 0 0 1 20.97783 14.496874S746.678808 307.683872 692.955098 440.884561a1893.121197 1893.121197 0 0 0-82.205803 254.292226 12.791359 12.791359 0 0 1-12.450257 9.891984zM429.111991 726.899358a12.791359 12.791359 0 0 1-12.620808-9.891984 2415.008662 2415.008662 0 0 0-72.313819-301.53498c-44.684482-138.487785-79.47698-198.180796-79.818083-198.863002a12.791359 12.791359 0 0 1 22.001139-12.961911c1.534963 2.558272 36.327461 62.251283 82.035251 204.661751a2446.39013 2446.39013 0 0 1 73.166576 305.287112 12.791359 12.791359 0 0 1-10.57419 14.667426z" fill="#cdcdcd" p-id="3401"></path><path d="M634.114845 0.691245c-26.264925-3.752132-51.165438 7.674816-73.507679 36.668564l18.249006 42.637865-28.652645-26.264925a379.135894 379.135894 0 0 0-41.273453 132.859587c-23.536101 153.496313 13.644117 342.978984 48.095511 347.924976s106.765213-157.418997 141.046057-304.263803l-60.71632-2.728823 66.003415-22.17169c27.629336-138.658336-17.055146-196.475281-69.243892-204.661751z" fill="#cdcdcd" p-id="3402"></path><path d="M556.855034 727.06991a12.791359 12.791359 0 0 1-12.79136-11.938603 2386.014914 2386.014914 0 0 1 8.357022-336.839131C569.987496 196.654872 595.911318 116.154583 597.27573 112.743554a12.791359 12.791359 0 1 1 24.047755 7.333712s-26.264925 81.694149-43.32007 259.920424a2364.354878 2364.354878 0 0 0-8.357022 332.745897 12.791359 12.791359 0 0 1-11.938602 13.473565z" fill="#cdcdcd" p-id="3403"></path><path d="M432.181917 112.061348a59.351908 59.351908 0 0 1 54.405916 31.893123l7.163161 12.620808a291.131341 291.131341 0 0 1 24.55941 103.865838c9.891985 119.386021-28.482094 261.967041-55.088121 264.013659s-72.313819-119.386021-90.903928-233.314396l45.53724-6.139853-49.459924-20.125072c-13.814668-107.788522 24.218307-149.744181 63.786246-152.814107z" fill="#cdcdcd" p-id="3404"></path><path d="M462.369525 711.038072a12.791359 12.791359 0 0 1-12.620808-12.96191c0-1.19386 2.217169-119.386021-3.240477-264.354762s-17.055146-232.802742-17.055146-233.655499a12.791359 12.791359 0 0 1 25.412167-3.581581c0 0.852757 12.450257 90.392273 17.055146 236.213771s3.240478 264.525313 3.240478 265.719173a12.791359 12.791359 0 0 1-12.79136 12.620808z" fill="#cdcdcd" p-id="3405"></path><path d="M375.558833 972.834562h272.882334v39.397387a11.768051 11.768051 0 0 1-11.76805 11.768051H387.326883a11.768051 11.768051 0 0 1-11.76805-11.768051V972.834562z" fill="#cdcdcd" p-id="3406"></path><path d="M358.503687 682.897082h306.992626a34.110292 34.110292 0 0 1 34.110292 34.110292v204.661751a68.220584 68.220584 0 0 1-68.220584 68.220583H392.613979a68.220584 68.220584 0 0 1-68.220584-68.220583V717.007374a34.110292 34.110292 0 0 1 34.110292-34.110292z" fill="#cdcdcd" p-id="3407"></path></svg>